<svg width="252" height="196" viewBox="0 0 252 196" fill="none" xmlns="http://www.w3.org/2000/svg">
<g opacity="0.5">
<path d="M47.494 159.609H226" stroke="#09473B" stroke-width="3.66117" stroke-linecap="round" stroke-linejoin="round"/>
<path d="M171.58 188.717H48.9467C45.332 188.717 42.4031 185.788 42.4031 182.173L63.3428 21.0026C63.3428 17.3878 66.2718 14.4589 69.8865 14.4589H189.903C193.516 14.4589 196.446 17.3878 196.446 21.0026L178.124 182.173C178.124 185.788 175.194 188.717 171.58 188.717Z" fill="white"/>
<path d="M171.58 188.717H48.9467C45.332 188.717 42.4031 185.788 42.4031 182.173L63.3428 21.0026C63.3428 17.3878 66.2718 14.4589 69.8865 14.4589H189.903C193.516 14.4589 196.446 17.3878 196.446 21.0026L178.124 182.173C178.124 185.788 175.194 188.717 171.58 188.717Z" stroke="#09473B" stroke-width="3.66117" stroke-linecap="round" stroke-linejoin="round"/>
<path d="M186.113 45.9492C186.113 45.9492 175.996 131.854 170.498 167.843C169.897 171.789 166.487 174.707 162.443 174.751C142.478 174.966 74.7796 174.982 54.5153 174.926C50.7226 174.916 47.6622 171.983 47.669 168.37L72.1465 45.7734L186.113 45.9492Z" fill="#09473B"/>
<path d="M71.9208 26.6825L71.9222 25.7664C71.9251 23.9224 73.4429 22.4289 75.3117 22.4318L181.439 22.5955C183.307 22.5984 184.82 24.0966 184.817 25.9406L184.816 26.8567" fill="white"/>
<path d="M71.9208 26.6825L71.9222 25.7664C71.9251 23.9224 73.4429 22.4289 75.3117 22.4318L181.439 22.5955C183.307 22.5984 184.82 24.0966 184.817 25.9406L184.816 26.8567" stroke="#09473B" stroke-width="3.66117" stroke-linecap="round" stroke-linejoin="round"/>
<path d="M69.5389 27.5047L186.142 27.6846C186.876 27.6857 187.468 28.273 187.465 28.9967C187.423 40.0384 184.587 118.015 150.674 155.201C142.775 163.863 131.448 168.713 119.639 168.695L27.3436 168.552C26.1409 168.551 25.5542 167.102 26.4349 166.295C38.7047 155.035 71.2424 93.9949 68.2293 28.954C68.1938 28.1779 68.7511 27.5035 69.5389 27.5047Z" fill="white"/>
<path d="M69.5389 27.5047L186.142 27.6846C186.876 27.6857 187.468 28.273 187.465 28.9967C187.423 40.0384 184.587 118.015 150.674 155.201C142.775 163.863 131.448 168.713 119.639 168.695L27.3436 168.552C26.1409 168.551 25.5542 167.102 26.4349 166.295C38.7047 155.035 71.2424 93.9949 68.2293 28.954C68.1938 28.1779 68.7511 27.5035 69.5389 27.5047Z" stroke="#09473B" stroke-width="3.66117" stroke-linecap="round" stroke-linejoin="round"/>
<path d="M126.833 168.1C136.1 166.618 144.683 161.352 151.043 154.376C166.055 137.918 174.714 113.465 179.711 90.3641C165.918 119.801 155.239 121.587 155.239 121.587C159.826 161.267 127.681 167.862 126.833 168.1Z" fill="white"/>
<path d="M126.833 168.1C136.1 166.618 144.683 161.352 151.043 154.376C166.055 137.918 174.714 113.465 179.711 90.3641C165.918 119.801 155.239 121.587 155.239 121.587C159.826 161.267 127.681 167.862 126.833 168.1Z" stroke="#09473B" stroke-width="3.66117" stroke-linecap="round" stroke-linejoin="round"/>
<path d="M75.8206 106.127L155.117 106.53" stroke="#09473B" stroke-width="3.66117" stroke-linecap="round" stroke-linejoin="round"/>
<path d="M70.5299 125.557L109.846 125.757" stroke="#09473B" stroke-width="3.66117" stroke-linecap="round" stroke-linejoin="round"/>
<path d="M121.303 125.815L143.077 125.926" stroke="#09473B" stroke-width="3.66117" stroke-linecap="round" stroke-linejoin="round"/>
<path d="M61.1328 140.017L100.449 140.217" stroke="#09473B" stroke-width="3.66117" stroke-linecap="round" stroke-linejoin="round"/>
<path d="M124.371 47.8449C125.238 48.4762 136.755 57.1555 141.638 60.8763C141.931 61.0989 142.137 61.4337 142.385 61.7164L142.382 62.2176C142.354 62.2685 142.324 62.3181 142.3 62.3703C141.927 63.1916 141.171 63.3946 140.454 62.8517C138.557 61.4181 124.175 50.5203 124.061 50.4386C122.952 51.2614 112.073 59.3347 107.735 62.5544C107.639 62.6259 107.545 62.6987 107.444 62.7636C106.884 63.1207 106.259 63.0181 105.882 62.511C105.492 61.9881 105.571 61.3354 106.101 60.918C106.674 60.4681 123.559 47.9952 123.796 47.842L124.371 47.8449ZM138.088 84.6578C138.935 84.6621 139.392 84.2064 139.397 83.3518C139.427 77.7073 139.453 72.0641 139.487 66.4197C139.489 65.9237 139.303 65.5523 138.909 65.2533C134.225 61.6971 129.547 58.1345 124.865 54.5744C124.283 54.1317 123.817 54.1359 123.235 54.5687C118.537 58.0667 113.843 61.5686 109.141 65.0587C108.697 65.3888 108.494 65.7817 108.491 66.334C108.471 71.9301 108.44 77.5262 108.412 83.1222C108.407 84.075 108.833 84.509 109.78 84.5139C112.865 84.5295 134.943 84.6431 138.088 84.6578Z" fill="#2BA58C"/>
<path d="M123.971 69.8364C121.131 69.822 118.817 72.1123 118.803 74.9522L118.754 84.5608L129.038 84.6131L129.087 75.0045C129.101 72.1646 126.811 69.8509 123.971 69.8364Z" fill="white"/>
<path d="M98.2819 84.4554L147.36 84.705" stroke="#09473B" stroke-width="3.66117" stroke-linecap="round" stroke-linejoin="round"/>
<path d="M155.968 10.9541H139.299C139.299 4.90382 134.394 0 128.344 0C122.292 0 117.387 4.90382 117.387 10.9541H100.716C99.9939 10.9541 99.4076 11.5404 99.4076 12.2628V24.527C99.4076 29.7069 103.609 33.9067 108.789 33.9067H147.896C153.076 33.9067 157.277 29.7069 157.277 24.527V12.2628C157.277 11.5404 156.691 10.9541 155.968 10.9541ZM123.126 10.9541C123.126 8.07227 125.462 5.73618 128.344 5.73618C131.224 5.73618 133.562 8.07227 133.562 10.9541H123.126Z" fill="#2BA58C"/>
<path d="M178.869 195.225C198.222 195.225 213.91 179.536 213.91 160.182C213.91 140.829 198.222 125.137 178.869 125.137C159.514 125.137 143.823 140.829 143.823 160.182C143.823 179.536 159.514 195.225 178.869 195.225Z" fill="#2BA58C"/>
<path d="M171.85 137.101L178.855 159.58" stroke="white" stroke-width="19.9872" stroke-linecap="round"/>
<path d="M160.622 159.449L178.855 159.491" stroke="white" stroke-width="19.9872" stroke-linecap="round"/>
</g>
<path d="M32.16 81.304V115H23.952V101.128H11.184V115H2.976V81.304H11.184V94.504H23.952V81.304H32.16ZM50.2774 115.384C47.6534 115.384 45.2854 114.824 43.1734 113.704C41.0934 112.584 39.4454 110.984 38.2294 108.904C37.0454 106.824 36.4534 104.392 36.4534 101.608C36.4534 98.856 37.0614 96.44 38.2774 94.36C39.4934 92.248 41.1574 90.632 43.2694 89.512C45.3814 88.392 47.7494 87.832 50.3734 87.832C52.9974 87.832 55.3654 88.392 57.4774 89.512C59.5894 90.632 61.2534 92.248 62.4694 94.36C63.6854 96.44 64.2934 98.856 64.2934 101.608C64.2934 104.36 63.6694 106.792 62.4214 108.904C61.2054 110.984 59.5254 112.584 57.3814 113.704C55.2694 114.824 52.9014 115.384 50.2774 115.384ZM50.2774 108.28C51.8454 108.28 53.1734 107.704 54.2614 106.552C55.3814 105.4 55.9414 103.752 55.9414 101.608C55.9414 99.464 55.3974 97.816 54.3094 96.664C53.2534 95.512 51.9414 94.936 50.3734 94.936C48.7734 94.936 47.4454 95.512 46.3894 96.664C45.3334 97.784 44.8054 99.432 44.8054 101.608C44.8054 103.752 45.3174 105.4 46.3414 106.552C47.3974 107.704 48.7094 108.28 50.2774 108.28ZM102.824 87.928C106.152 87.928 108.792 88.936 110.744 90.952C112.728 92.968 113.72 95.768 113.72 99.352V115H105.56V100.456C105.56 98.728 105.096 97.4 104.168 96.472C103.272 95.512 102.024 95.032 100.424 95.032C98.8239 95.032 97.5599 95.512 96.6319 96.472C95.7359 97.4 95.2879 98.728 95.2879 100.456V115H87.1279V100.456C87.1279 98.728 86.6639 97.4 85.7359 96.472C84.8399 95.512 83.5919 95.032 81.9919 95.032C80.3919 95.032 79.1279 95.512 78.1999 96.472C77.3039 97.4 76.8559 98.728 76.8559 100.456V115H68.6479V88.216H76.8559V91.576C77.6879 90.456 78.7759 89.576 80.1199 88.936C81.4639 88.264 82.9839 87.928 84.6799 87.928C86.6959 87.928 88.4879 88.36 90.0559 89.224C91.6559 90.088 92.9039 91.32 93.7999 92.92C94.7279 91.448 95.9919 90.248 97.5919 89.32C99.1919 88.392 100.936 87.928 102.824 87.928ZM144.708 101.176C144.708 101.944 144.66 102.744 144.564 103.576H125.988C126.116 105.24 126.644 106.52 127.572 107.416C128.532 108.28 129.7 108.712 131.076 108.712C133.124 108.712 134.548 107.848 135.348 106.12H144.084C143.636 107.88 142.82 109.464 141.636 110.872C140.484 112.28 139.028 113.384 137.268 114.184C135.508 114.984 133.54 115.384 131.364 115.384C128.74 115.384 126.404 114.824 124.356 113.704C122.308 112.584 120.708 110.984 119.556 108.904C118.404 106.824 117.828 104.392 117.828 101.608C117.828 98.824 118.388 96.392 119.508 94.312C120.66 92.232 122.26 90.632 124.308 89.512C126.356 88.392 128.708 87.832 131.364 87.832C133.956 87.832 136.26 88.376 138.276 89.464C140.292 90.552 141.86 92.104 142.98 94.12C144.132 96.136 144.708 98.488 144.708 101.176ZM136.308 99.016C136.308 97.608 135.828 96.488 134.868 95.656C133.908 94.824 132.708 94.408 131.268 94.408C129.892 94.408 128.724 94.808 127.764 95.608C126.836 96.408 126.26 97.544 126.036 99.016H136.308ZM173.279 81.304V87.88H164.351V115H156.143V87.88H147.215V81.304H173.279ZM181.526 85.432C180.086 85.432 178.902 85.016 177.974 84.184C177.078 83.32 176.63 82.264 176.63 81.016C176.63 79.736 177.078 78.68 177.974 77.848C178.902 76.984 180.086 76.552 181.526 76.552C182.934 76.552 184.086 76.984 184.982 77.848C185.91 78.68 186.374 79.736 186.374 81.016C186.374 82.264 185.91 83.32 184.982 84.184C184.086 85.016 182.934 85.432 181.526 85.432ZM185.606 88.216V115H177.398V88.216H185.606ZM189.922 101.56C189.922 98.808 190.434 96.392 191.458 94.312C192.514 92.232 193.938 90.632 195.73 89.512C197.522 88.392 199.522 87.832 201.73 87.832C203.49 87.832 205.09 88.2 206.53 88.936C208.002 89.672 209.154 90.664 209.986 91.912V79.48H218.194V115H209.986V111.16C209.218 112.44 208.114 113.464 206.674 114.232C205.266 115 203.618 115.384 201.73 115.384C199.522 115.384 197.522 114.824 195.73 113.704C193.938 112.552 192.514 110.936 191.458 108.856C190.434 106.744 189.922 104.312 189.922 101.56ZM209.986 101.608C209.986 99.56 209.41 97.944 208.258 96.76C207.138 95.576 205.762 94.984 204.13 94.984C202.498 94.984 201.106 95.576 199.954 96.76C198.834 97.912 198.274 99.512 198.274 101.56C198.274 103.608 198.834 105.24 199.954 106.456C201.106 107.64 202.498 108.232 204.13 108.232C205.762 108.232 207.138 107.64 208.258 106.456C209.41 105.272 209.986 103.656 209.986 101.608ZM251.492 88.216L234.692 127.72H225.86L232.004 114.088L221.108 88.216H230.276L236.468 104.968L242.612 88.216H251.492Z" fill="#FFFDF7"/>
</svg>
